#N canvas 438 186 930 686 8;
#X obj 374 545 *~;
#X obj 373 566 *~ 1;
#N canvas 0 0 439 229 pan 0;
#X obj 194 114 cos;
#X obj 69 115 - 1.57;
#X obj 69 139 cos;
#X obj 150 159 *~ 0.785;
#X obj 16 158 *~ 0.785;
#X obj 101 16 inlet~;
#X obj 18 201 outlet~;
#X obj 150 197 outlet~;
#X obj 209 21 inlet;
#X connect 0 0 3 1;
#X connect 1 0 2 0;
#X connect 2 0 4 1;
#X connect 3 0 7 0;
#X connect 4 0 6 0;
#X connect 5 0 4 0;
#X connect 5 0 3 0;
#X connect 8 0 0 0;
#X connect 8 0 1 0;
#X restore 372 590 pd pan;
#X obj 372 620 throw~ \$1-L~;
#X obj 480 620 throw~ \$1-R~;
#X obj 383 218 del 0;
#X obj 376 448 line~;
#X obj 390 350 line~;
#X text 388 308 del-start \, del-end duration;
#X obj 269 102 tgl 15 0 empty empty empty 0 -8 0 8 #fcfcfc #000000 #000000 0 1;
#X msg 276 78 1;
#X msg 250 75 0;
#X obj 242 441 spigot 1;
#X obj 294 327 sel 0 1;
#X obj 295 347 f 1;
#X obj 311 364 f 0;
#X obj 242 482 s grain-ready;
#X msg 390 324 \$1 \, \$2 \$3;
#X obj 474 -6 r \$2play;
#X obj 242 462 f \$2;
#X obj 238 415 r \$2ask;
#X obj 335 649 outlet~;
#X obj 338 75 inlet~;
#X text 37 148 trying to make sure the throw~s get done before the catch~s;
#X text 545 275 message: delay-start \, delay-end \, duration \, vol \, pan;
#X obj 456 396 loadbang;
#X obj 569 365 sel 0 1;
#X obj 580 326 r grain_env_type;
#X msg 456 416 0;
#X msg 462 459 set cos;
#X msg 524 460 set quad;
#X obj 569 345 f;
#X obj 443 130 unpack f f f f f;
#X obj 371 195 t f f;
#X obj 375 487 tabread~ cos;
#X obj 391 372 delread4~ \$1-delay;
#X msg 379 424 0 \, 16383 \$1;
#X obj 375 515 /~ 16384;
#X obj 474 19 t a a b b;
#X connect 0 0 1 0;
#X connect 1 0 2 0;
#X connect 2 0 3 0;
#X connect 2 1 4 0;
#X connect 5 0 11 0;
#X connect 6 0 34 0;
#X connect 7 0 35 0;
#X connect 9 0 13 0;
#X connect 10 0 9 0;
#X connect 11 0 9 0;
#X connect 12 0 19 0;
#X connect 13 0 14 0;
#X connect 13 1 15 0;
#X connect 14 0 12 1;
#X connect 15 0 12 1;
#X connect 17 0 7 0;
#X connect 18 0 38 0;
#X connect 19 0 16 0;
#X connect 20 0 12 0;
#X connect 22 0 21 0;
#X connect 25 0 28 0;
#X connect 26 0 29 0;
#X connect 26 1 30 0;
#X connect 27 0 31 1;
#X connect 28 0 6 0;
#X connect 29 0 34 0;
#X connect 30 0 34 0;
#X connect 31 0 26 0;
#X connect 32 2 33 0;
#X connect 32 3 1 1;
#X connect 32 4 2 1;
#X connect 33 0 36 0;
#X connect 33 1 5 0;
#X connect 34 0 37 0;
#X connect 35 0 0 1;
#X connect 36 0 6 0;
#X connect 37 0 0 0;
#X connect 38 0 32 0;
#X connect 38 1 17 0;
#X connect 38 2 31 0;
#X connect 38 3 10 0;
#X coords 0 -1 1 1 185 18 1 100 100;
