#N canvas 133 373 592 407 8;
#N canvas 556 130 884 610 vgraindel-guts 0;
#X obj 406 22 cnv 15 90 180 empty empty vgraindel 20 12 1 14 #c47828 #fcfcfc 0;
#X obj 581 2 inlet~;
#X obj 681 -2 inlet;
#X obj 416 157 hsl 64 8 0 1 0 1 empty empty clean<->effect 2 -6 1 8 #d46cd0 #000000 #fcfcfc 5700 1;
#X obj 595 392 outlet~;
#X obj 416 95 hsl 64 8 10 900 0 1 empty empty avgGrainDuration -2 -6 1 8 #1474a8 #000000 #fcfcfc 2500 1;
#X obj 417 50 hsl 64 8 1 80 0 1 empty empty grainsPerSec -2 -6 1 8 #14e888 #000000 #fcfcfc 4100 1;
#X obj 722 392 outlet~;
#N canvas 166 512 619 300 choosegrain 0;
#X obj 74 31 inlet;
#X obj 39 225 outlet;
#X obj 42 112 random 100;
#X obj 42 150 sel 1;
#X obj 186 30 inlet;
#X floatatom 75 54 6 0 0 0 - - - 0;
#N canvas 314 176 880 696 start 0;
#X obj 111 14 inlet;
#X obj 109 471 outlet;
#X floatatom 211 310 4 0 0 0 - - - 0;
#X obj 211 285 + 1;
#X obj 211 259 float;
#X msg 327 230 0;
#X obj 211 82 bng 17 250 50 0 empty empty empty 17 7 0 10 #dfdfdf #000000 #000000;
#X obj 195 231 spigot 0;
#X msg 267 231 1;
#X msg 120 235 0;
#X obj 32 347 r grain-ready;
#X obj 120 209 select 20;
#X obj 291 266 t b f;
#X obj 294 309 f;
#X obj 211 203 trigger b b b;
#X obj 177 423 sel 1 2 3 4 5 6 7 8 9 10 11 12 13 14 15 16 17 18 19 20;
#X obj 178 449 s 1ask;
#X obj 192 466 s 2ask;
#X obj 204 483 s 3ask;
#X obj 215 501 s 4ask;
#X obj 233 518 s 5ask;
#X obj 244 446 s 6ask;
#X obj 258 463 s 7ask;
#X obj 270 480 s 8ask;
#X obj 281 498 s 9ask;
#X obj 299 515 s 10ask;
#X obj 310 447 s 11ask;
#X obj 324 464 s 12ask;
#X obj 336 481 s 13ask;
#X obj 347 499 s 14ask;
#X obj 365 516 s 15ask;
#X obj 380 444 s 16ask;
#X obj 394 461 s 17ask;
#X obj 406 478 s 18ask;
#X obj 417 496 s 19ask;
#X obj 435 513 s 20ask;
#X text 48 188 conditionally stop the count, f 13;
#X obj 231 350 print;
#X obj 294 289 delay 1;
#X connect 0 0 14 0;
#X connect 2 0 15 0;
#X connect 3 0 2 0;
#X connect 3 0 4 1;
#X connect 3 0 11 0;
#X connect 3 0 12 0;
#X connect 4 0 3 0;
#X connect 5 0 4 1;
#X connect 6 0 14 0;
#X connect 7 0 4 0;
#X connect 8 0 7 1;
#X connect 9 0 7 1;
#X connect 10 0 1 0;
#X connect 10 0 9 0;
#X connect 11 0 9 0;
#X connect 12 0 38 0;
#X connect 12 1 13 1;
#X connect 13 0 7 0;
#X connect 14 0 7 0;
#X connect 14 1 5 0;
#X connect 14 2 8 0;
#X connect 15 0 16 0;
#X connect 15 1 17 0;
#X connect 15 2 18 0;
#X connect 15 3 19 0;
#X connect 15 4 20 0;
#X connect 15 5 21 0;
#X connect 15 6 22 0;
#X connect 15 7 23 0;
#X connect 15 8 24 0;
#X connect 15 9 25 0;
#X connect 15 10 26 0;
#X connect 15 11 27 0;
#X connect 15 12 28 0;
#X connect 15 13 29 0;
#X connect 15 14 30 0;
#X connect 15 15 31 0;
#X connect 15 16 32 0;
#X connect 15 17 33 0;
#X connect 15 18 34 0;
#X connect 15 19 35 0;
#X connect 38 0 13 0;
#X restore 41 193 pd start the first free grain;
#X obj 27 66 loadbang;
#X obj 42 93 metro 10;
#X obj 42 131 < 10;
#X obj 135 154 print;
#X text 89 130 < 10 = average 10 bangs per sec;
#X connect 0 0 5 0;
#X connect 2 0 9 0;
#X connect 3 0 6 0;
#X connect 4 0 8 0;
#X connect 5 0 9 1;
#X connect 6 0 1 0;
#X connect 7 0 8 0;
#X connect 8 0 2 0;
#X connect 9 0 3 0;
#X restore 44 96 pd choosegrain;
#X obj 417 137 hsl 64 8 0 1 0 1 empty empty stereoSpread -2 -6 1 8 #14b86c #000000 #fcfcfc 6300 1;
#N canvas 225 302 240 260 choosepan 0;
#X obj 107 22 inlet;
#X obj 107 44 random 100;
#X obj 107 80 *;
#X obj 147 22 inlet;
#X obj 154 152 / 2;
#X obj 151 132 -;
#X obj 144 93 t b f;
#X obj 146 112 1;
#X obj 107 61 / 100;
#X obj 114 176 +;
#X obj 114 200 * 1.57;
#X obj 114 230 outlet;
#X connect 0 0 1 0;
#X connect 1 0 8 0;
#X connect 2 0 9 0;
#X connect 3 0 2 1;
#X connect 3 0 6 0;
#X connect 4 0 9 1;
#X connect 5 0 4 0;
#X connect 6 0 7 0;
#X connect 6 1 5 1;
#X connect 7 0 5 0;
#X connect 8 0 2 0;
#X connect 9 0 10 0;
#X connect 10 0 11 0;
#X restore 398 254 pd choosepan;
#N canvas 100 376 450 300 choosevol 0;
#X obj 89 62 random 100;
#X obj 89 21 inlet;
#X obj 89 247 outlet;
#X obj 89 94 / 100;
#X connect 0 0 3 0;
#X connect 1 0 0 0;
#X connect 3 0 2 0;
#X restore 328 254 pd choosevol;
#N canvas 33 376 196 325 choosedur 0;
#X obj 27 27 inlet;
#X obj 43 171 outlet;
#X obj 124 25 inlet;
#X obj 29 65 random 400;
#X obj 104 65 random 400;
#X obj 43 104 +;
#X obj 41 137 max 50;
#X connect 0 0 3 0;
#X connect 2 0 4 1;
#X connect 2 0 3 1;
#X connect 3 0 5 0;
#X connect 4 0 5 1;
#X connect 5 0 6 0;
#X connect 6 0 1 0;
#X restore 255 252 pd choosedur;
#X obj 418 73 hsl 64 8 0 2000 0 1 empty empty maxDelayec -2 -6 1 8 #14b814 #000000 #fcfcfc 600 1;
#N canvas 485 290 254 162 choosedelshift 0;
#X obj 76 11 inlet;
#X obj 123 67 random 20;
#X obj 149 15 inlet;
#X obj 64 134 outlet;
#X text 83 26 bang;
#X obj 63 67 random 20;
#X obj 67 101 - 0;
#X obj 65 42 t b b;
#X text 150 3 millisec range;
#X connect 0 0 7 0;
#X connect 1 0 6 1;
#X connect 2 0 1 1;
#X connect 2 0 5 1;
#X connect 5 0 6 0;
#X connect 6 0 3 0;
#X connect 7 0 5 0;
#X connect 7 1 1 0;
#X restore 157 253 pd choosedelshift;
#X obj 46 116 t f b b b b b;
#X obj 415 116 hsl 64 8 2 200 1 1 empty empty DelayShiftRange -2 -6 1 8 #9858d0 #000000 #fcfcfc 900 1;
#X obj 40 319 pack 0 0 0 0 0 0;
#N canvas 29 442 672 381 choosedels 0;
#X obj 118 12 inlet;
#X obj 116 321 outlet;
#X obj 152 79 2000;
#X obj 101 125 random 2000;
#X obj 180 16 inlet;
#X obj 254 18 inlet;
#X text 246 3 del shift;
#X text 174 2 max del;
#X obj 273 93 f;
#X text 121 1 bang;
#X obj 119 37 t b b b;
#X obj 153 103 - 0;
#X obj 118 216 +;
#X obj 273 111 > 0;
#X text 353 144 if delshift is pos \, choose delstart anytime up to maxdel - delshift ms \, set delend;
#X text 165 204 if delshift is neg \, choose delstart anytime after delshift ms \, set delend;
#X obj 212 322 outlet;
#X text 115 343 delstart;
#X text 214 343 delend;
#X obj 194 274 +;
#X obj 118 237 t f f;
#X obj 272 129 sel 1;
#X obj 184 86 f;
#X msg 294 150 bang;
#X obj 188 187 f;
#X obj 275 48 t f f f f;
#X msg 158 184 0;
#X msg 218 86 0;
#X obj 186 39 t f b;
#X obj 203 164 abs;
#X connect 0 0 10 0;
#X connect 2 0 11 0;
#X connect 3 0 12 0;
#X connect 4 0 28 0;
#X connect 5 0 19 1;
#X connect 5 0 12 1;
#X connect 5 0 25 0;
#X connect 8 0 13 0;
#X connect 10 0 3 0;
#X connect 10 1 8 0;
#X connect 10 2 2 0;
#X connect 11 0 3 1;
#X connect 12 0 20 0;
#X connect 13 0 21 0;
#X connect 19 0 16 0;
#X connect 20 0 1 0;
#X connect 20 1 19 0;
#X connect 21 0 22 0;
#X connect 21 0 26 0;
#X connect 21 1 23 0;
#X connect 22 0 11 1;
#X connect 23 0 24 0;
#X connect 23 0 27 0;
#X connect 24 0 12 1;
#X connect 25 1 8 1;
#X connect 25 2 22 1;
#X connect 25 3 29 0;
#X connect 26 0 12 1;
#X connect 27 0 11 1;
#X connect 28 0 2 1;
#X connect 28 1 25 0;
#X connect 29 0 24 1;
#X restore 62 260 pd choosedels;
#X obj 416 179 hsl 64 8 0 2000 0 1 empty empty StraightSigDelay -2 -6 1 8 #f07864 #000000 #fcfcfc 1300 1;
#N canvas 0 0 450 258 delayinhere 0;
#X obj 234 14 inlet~;
#N canvas 457 84 450 300 del-writer 0;
#X obj 245 39 delwrite~ \$0-delay 2000;
#X obj 231 12 inlet~;
#X obj 236 72 outlet~;
#X connect 1 0 0 0;
#X connect 1 0 2 0;
#X restore 245 81 pd del-writer;
#N canvas 140 463 450 300 del-reader 0;
#X obj 183 33 inlet~;
#X obj 186 136 outlet~;
#X obj 120 143 outlet~;
#X obj 113 37 inlet~;
#X obj 184 90 delread4~ \$0-delay;
#X connect 0 0 4 0;
#X connect 3 0 2 0;
#X connect 4 0 1 0;
#X restore 258 118 pd del-reader;
#X obj 316 15 inlet~;
#X obj 321 186 outlet~;
#X text 333 36 delay time;
#X connect 0 0 1 0;
#X connect 1 0 2 0;
#X connect 2 1 4 0;
#X connect 3 0 2 1;
#X restore 592 254 pd delayinhere;
#X obj 658 232 line~;
#X obj 592 276 hip~ 5;
#X obj 656 212 pack 0 200;
#N canvas 268 88 307 357 grains 0;
#X obj 61 45 vgrain \$0 1;
#X obj 61 66 vgrain \$0 2;
#X obj 61 86 vgrain \$0 3;
#X obj 61 107 vgrain \$0 4;
#X obj 60 127 vgrain \$0 5;
#X obj 60 148 vgrain \$0 6;
#X obj 60 168 vgrain \$0 7;
#X obj 60 189 vgrain \$0 8;
#X obj 60 209 vgrain \$0 9;
#X obj 60 230 vgrain \$0 10;
#X obj 148 46 vgrain \$0 11;
#X obj 148 67 vgrain \$0 12;
#X obj 148 87 vgrain \$0 13;
#X obj 148 108 vgrain \$0 14;
#X obj 147 128 vgrain \$0 15;
#X obj 147 149 vgrain \$0 16;
#X obj 147 169 vgrain \$0 17;
#X obj 147 190 vgrain \$0 18;
#X obj 147 210 vgrain \$0 19;
#X obj 147 231 vgrain \$0 20;
#X obj 148 282 outlet~;
#X connect 19 0 20 0;
#X restore 516 290 pd grains;
#X obj 59 467 route 1 2 3 4 5 6 7 8 9 10 11 12 13 14 15 16 17 18 19 20;
#X obj 63 488 s 1play;
#X obj 73 507 s 2play;
#X obj 87 526 s 3play;
#X obj 97 545 s 4play;
#X obj 110 563 s 5play;
#X obj 129 487 s 6play;
#X obj 139 506 s 7play;
#X obj 153 525 s 8play;
#X obj 163 544 s 9play;
#X obj 176 562 s 10play;
#X obj 198 491 s 11play;
#X obj 208 510 s 12play;
#X obj 222 529 s 13play;
#X obj 232 548 s 14play;
#X obj 245 566 s 15play;
#X obj 269 490 s 16play;
#X obj 279 509 s 17play;
#X obj 293 528 s 18play;
#X obj 303 547 s 19play;
#X obj 316 565 s 20play;
#X obj 40 51 s density;
#X obj 92 229 r time @hv_param 0 2000 1000;
#X obj 91 208 s time;
#X obj 445 229 r width @hv_param 0 1 0.5;
#X obj 445 208 s width;
#X obj 303 206 s flow;
#X obj 237 186 r detune @hv_param 2 200 50;
#X obj 238 166 s detune;
#X obj 711 278 r mix @hv_param 0 1 0.75;
#X obj 709 257 s mix;
#X obj 655 187 r straight_delay @hv_param 0 2000 0;
#X obj 654 168 s straight_delay;
#N canvas 357 212 509 275 catchL 0;
#X obj 103 72 inlet~;
#X obj 100 210 outlet~;
#X obj 319 214 outlet~;
#X obj 289 131 catch~ \$0-L~;
#X text 144 58 trying to make catch! hapen after all the throws in the same audio period;
#X connect 0 0 1 0;
#X connect 3 0 2 0;
#X restore 566 331 pd catchL;
#N canvas 357 212 450 300 catchR 0;
#X obj 103 72 inlet~;
#X obj 100 210 outlet~;
#X obj 319 214 outlet~;
#X obj 289 131 catch~ \$0-R~;
#X connect 0 0 1 0;
#X connect 3 0 2 0;
#X restore 694 325 pd catchR;
#N canvas 92 92 450 300 blend 0;
#X obj 184 139 cos;
#X obj 239 123 - 1.57;
#X obj 141 158 *~ 0.76;
#X obj 197 162 *~ 0.76;
#X obj 237 142 cos;
#X obj 181 181 +~;
#X obj 264 44 inlet;
#X obj 263 66 * 1.57;
#X text 305 41 blend 0-1;
#X obj 55 29 inlet~;
#X obj 188 22 inlet~;
#X obj 167 228 outlet~;
#X connect 0 0 2 1;
#X connect 1 0 4 0;
#X connect 2 0 5 0;
#X connect 3 0 5 1;
#X connect 4 0 3 1;
#X connect 5 0 11 0;
#X connect 6 0 7 0;
#X connect 7 0 1 0;
#X connect 7 0 0 0;
#X connect 9 0 2 0;
#X connect 10 0 3 0;
#X restore 589 356 pd blend;
#N canvas 92 92 450 300 blend 0;
#X obj 184 139 cos;
#X obj 239 123 - 1.57;
#X obj 141 158 *~ 0.76;
#X obj 197 162 *~ 0.76;
#X obj 237 142 cos;
#X obj 181 181 +~;
#X obj 264 44 inlet;
#X obj 263 66 * 1.57;
#X text 305 41 blend 0-1;
#X obj 55 29 inlet~;
#X obj 188 22 inlet~;
#X obj 167 228 outlet~;
#X connect 0 0 2 1;
#X connect 1 0 4 0;
#X connect 2 0 5 0;
#X connect 3 0 5 1;
#X connect 4 0 3 1;
#X connect 5 0 11 0;
#X connect 6 0 7 0;
#X connect 7 0 1 0;
#X connect 7 0 0 0;
#X connect 9 0 2 0;
#X connect 10 0 3 0;
#X restore 719 352 pd blend;
#X text 471 273 delayed straight sound;
#X text 318 356 mix between straight delayed sound and the catches;
#X obj 43 70 r density @hv_param 1 80 20;
#X obj 302 229 r flow @hv_param 50 900 500;
#X obj 477 27 tgl 15 0 empty empty empty 0 -8 0 8 #fcfcfc #000000 #000000 0 1;
#X obj 513 98 s grain_env_type;
#X obj 512 48 s env_type;
#X obj 514 74 r env_type @hv_param 0 1 0.5;
#X connect 1 0 20 0;
#X connect 2 0 8 1;
#X connect 3 0 55 0;
#X connect 5 0 51 0;
#X connect 6 0 46 0;
#X connect 8 0 15 0;
#X connect 9 0 50 0;
#X connect 10 0 17 5;
#X connect 11 0 17 4;
#X connect 12 0 17 3;
#X connect 13 0 48 0;
#X connect 14 0 18 2;
#X connect 15 0 17 0;
#X connect 15 1 18 0;
#X connect 15 2 14 0;
#X connect 15 3 12 0;
#X connect 15 4 11 0;
#X connect 15 5 10 0;
#X connect 16 0 53 0;
#X connect 17 0 25 0;
#X connect 18 0 17 1;
#X connect 18 1 17 2;
#X connect 19 0 57 0;
#X connect 20 0 22 0;
#X connect 21 0 20 1;
#X connect 22 0 60 0;
#X connect 22 0 61 0;
#X connect 23 0 21 0;
#X connect 24 0 58 0;
#X connect 24 0 59 0;
#X connect 25 0 26 0;
#X connect 25 1 27 0;
#X connect 25 2 28 0;
#X connect 25 3 29 0;
#X connect 25 4 30 0;
#X connect 25 5 31 0;
#X connect 25 6 32 0;
#X connect 25 7 33 0;
#X connect 25 8 34 0;
#X connect 25 9 35 0;
#X connect 25 10 36 0;
#X connect 25 11 37 0;
#X connect 25 12 38 0;
#X connect 25 13 39 0;
#X connect 25 14 40 0;
#X connect 25 15 41 0;
#X connect 25 16 42 0;
#X connect 25 17 43 0;
#X connect 25 18 44 0;
#X connect 25 19 45 0;
#X connect 47 0 18 1;
#X connect 49 0 10 1;
#X connect 52 0 14 1;
#X connect 54 0 60 2;
#X connect 54 0 61 2;
#X connect 56 0 23 0;
#X connect 58 1 60 1;
#X connect 59 1 61 1;
#X connect 60 0 4 0;
#X connect 61 0 7 0;
#X connect 64 0 8 0;
#X connect 65 0 12 1;
#X connect 66 0 68 0;
#X connect 69 0 67 0;
#X coords 0 -1 1 1 100 185 1 400 20;
#X restore 105 102 pd vgraindel-guts;
#X obj 247 47 tgl 15 1 empty empty empty 0 -8 0 8 #fcfcfc #000000 #000000 0 1;
#X obj 99 39 adc~ 1;
#X obj 119 366 dac~ 1 2;
#X connect 0 0 3 0;
#X connect 0 1 3 1;
#X connect 1 0 0 1;
#X connect 2 0 0 0;
#X coords 0 -1 1 1 105 190 1 100 100;
