#N canvas 250 276 815 501 8;
#X obj 157 296 cos~;
#X obj 155 374 *~;
#X obj 154 395 *~ 1;
#N canvas 0 0 439 229 pan 0;
#X obj 194 114 cos;
#X obj 69 115 - 1.57;
#X obj 69 139 cos;
#X obj 150 159 *~ 0.785;
#X obj 16 158 *~ 0.785;
#X obj 101 16 inlet~;
#X obj 18 201 outlet~;
#X obj 150 197 outlet~;
#X obj 209 21 inlet;
#X connect 0 0 3 1;
#X connect 1 0 2 0;
#X connect 2 0 4 1;
#X connect 3 0 7 0;
#X connect 4 0 6 0;
#X connect 5 0 4 0;
#X connect 5 0 3 0;
#X connect 8 0 0 0;
#X connect 8 0 1 0;
#X restore 153 419 pd pan;
#X obj 146 455 throw~ \$1-L~;
#X obj 254 455 throw~ \$1-R~;
#X obj 342 174 del 0;
#X obj 157 277 line~;
#X obj 171 179 line~;
#X text 169 145 del-start \, del-end duration;
#X obj 168 102 tgl 15 0 empty empty empty 0 -8 0 8 #fcfcfc #000000 #000000 0 1;
#X msg 212 82 1;
#X msg 184 82 0;
#X obj 21 335 print;
#X obj 60 26 bng 15 250 50 0 empty empty empty 0 -8 0 8 #fcfcfc #000000 #000000;
#X obj 23 270 spigot 1;
#X obj 75 156 sel 0 1;
#X obj 76 176 f 1;
#X obj 92 193 f 0;
#X obj 23 311 s grain-ready;
#X msg 171 161 \$1 \, \$2 \$3;
#X msg 343 150 \$3;
#X msg 158 247 -0.25 \, 0.25 \$3;
#X msg 180 375 \$4;
#X msg 185 400 \$5;
#X obj 267 107 r \$2play;
#X obj 23 291 f \$2;
#X obj 29 72 r \$2ask;
#X obj 116 478 outlet~;
#X obj 120 37 inlet~;
#X text 165 35 trying to make sure the throw~s get done before the catch~s;
#X obj 172 201 delread4~ \$1-delay;
#X text 326 104 message: delay-start \, delay-end \, duration \, vol \, pan;
#X obj 272 222 loadbang;
#X msg 267 242 -0.25;
#X obj 629 368 line~;
#X obj 604 138 sel 0 1;
#X obj 630 445 send~ \$0sharp-env;
#X obj 157 316 send~ \$0cos-env;
#X obj 156 351 receive~ \$0cos-env;
#X obj 653 194 f \$0;
#X text 692 173 \$0 needs to be expanded from objects., f 23;
#X msg 653 218 set \$1sharp-env;
#X obj 556 195 f \$0;
#X msg 556 219 set \$1cos-env;
#X msg 629 253 \$3;
#X msg 657 339 0 \$1;
#X obj 630 425 *~;
#X obj 630 398 *~;
#X obj 650 295 - 3;
#X msg 624 339 1 3;
#X obj 651 315 pipe 3;
#X obj 628 275 t b f;
#X obj 604 117 r grain_env_type;
#X connect 0 0 38 0;
#X connect 1 0 2 0;
#X connect 2 0 3 0;
#X connect 3 0 4 0;
#X connect 3 1 5 0;
#X connect 6 0 12 0;
#X connect 7 0 0 0;
#X connect 8 0 31 0;
#X connect 10 0 16 0;
#X connect 11 0 10 0;
#X connect 11 0 16 0;
#X connect 12 0 10 0;
#X connect 12 0 16 0;
#X connect 14 0 15 0;
#X connect 15 0 26 0;
#X connect 16 0 17 0;
#X connect 16 1 18 0;
#X connect 17 0 15 1;
#X connect 18 0 15 1;
#X connect 20 0 8 0;
#X connect 21 0 6 0;
#X connect 22 0 7 0;
#X connect 23 0 2 1;
#X connect 24 0 3 1;
#X connect 25 0 20 0;
#X connect 25 0 22 0;
#X connect 25 0 21 0;
#X connect 25 0 23 0;
#X connect 25 0 24 0;
#X connect 25 0 11 0;
#X connect 25 0 45 0;
#X connect 26 0 19 0;
#X connect 27 0 15 0;
#X connect 29 0 28 0;
#X connect 31 0 1 1;
#X connect 33 0 34 0;
#X connect 34 0 7 0;
#X connect 35 0 48 1;
#X connect 35 0 48 0;
#X connect 36 0 43 0;
#X connect 36 1 40 0;
#X connect 39 0 1 0;
#X connect 40 0 42 0;
#X connect 42 0 39 0;
#X connect 43 0 44 0;
#X connect 44 0 39 0;
#X connect 45 0 52 0;
#X connect 46 0 35 0;
#X connect 47 0 37 0;
#X connect 48 0 47 1;
#X connect 48 0 47 0;
#X connect 49 0 51 0;
#X connect 50 0 35 0;
#X connect 51 0 46 0;
#X connect 52 0 50 0;
#X connect 52 1 49 0;
#X connect 53 0 36 0;
#X coords 0 -1 1 1 85 18 1 100 100;
